PathFileType	3	(X/Y/Z)	C:\Users\koon_\Desktop\
DataRate	CameraRate	NumFrames	NumMarkers	Units	OrigDataRate	OrigDataStartFrame	OrigNumFrames
100.0	100.0	11	27	mm	100.0	2382	4762	
Frame#	Time	get:LFHD			get:RFHD			get:LBHD			get:RBHD			get:C7			get:T10			get:CLAV			get:STRN			get:RBAK			get:LSHO			get:LUPA			get:LELB			get:LFRA			get:LWRA			get:LWRB			get:LFIN			get:RSHO			get:RUPA			get:RELB			get:RFRA			get:RWRA			get:RWRB			get:RFIN			get:LASI			get:RASI			get:LPSI			get:RPSI			
		X1	Y1	Z1	X2	Y2	Z2	X3	Y3	Z3	X4	Y4	Z4	X5	Y5	Z5	X6	Y6	Z6	X7	Y7	Z7	X8	Y8	Z8	X9	Y9	Z9	X10	Y10	Z10	X11	Y11	Z11	X12	Y12	Z12	X13	Y13	Z13	X14	Y14	Z14	X15	Y15	Z15	X16	Y16	Z16	X17	Y17	Z17	X18	Y18	Z18	X19	Y19	Z19	X20	Y20	Z20	X21	Y21	Z21	X22	Y22	Z22	X23	Y23	Z23	X24	Y24	Z24	X25	Y25	Z25	X26	Y26	Z26	X27	Y27	Z27	
2382	23.81	100.37055	1555.6477	-33.567913	-40.736488	1553.3944	-38.18996	81.932938	1561.105	-194.66997	-46.584679	1533.4321	-203.98564	13.765212	1335.0859	-222.3131	15.347897	1129.0553	-245.16396	27.230223	1283.1655	-24.865191	36.837666	1088.6235	34.400749	-64.818779	1257.7988	-241.48726	128.80766	1354.4218	-155.90462	268.83237	1332.3816	-147.97923	424.74997	1289.2819	-123.12588	338.98834	1398.1791	-140.93777	285.08984	1465.6511	-123.38748	365.59433	1490.335	-134.00052	295.31882	1514.6517	-196.70862	-110.50179	1338.5054	-129.75134	-206.84113	1136.3966	-67.591965	-233.6954	1020.4149	-124.47247	-253.17091	985.16437	-35.632351	-257.4848	831.52094	13.015315	-289.04944	824.27063	-61.890572	-323.32159	769.66498	17.048218	158.16917	893.60352	-15.338634	-108.15896	874.76086	-5.2449231	58.011143	943.88477	-228.44852	-31.345312	941.01453	-226.60858
2383	23.82	100.14789	1555.6962	-33.631878	-40.944561	1553.4777	-38.165279	81.583374	1561.0294	-194.74548	-46.963627	1533.4374	-203.97855	13.513611	1335.1421	-222.21774	15.048231	1128.9978	-245.21887	27.029551	1283.1146	-24.832342	36.688805	1088.5553	34.264492	-65.038582	1257.7703	-241.48766	128.69266	1354.4631	-155.89894	269.41599	1330.9501	-148.56741	425.61438	1285.9708	-125.06573	345.65082	1400.3534	-137.05701	295.84894	1469.9172	-115.81129	377.64352	1490.4521	-126.43231	308.02194	1521.6925	-186.88155	-110.72207	1338.4625	-129.72899	-207.14467	1136.439	-67.447876	-234.08771	1020.4469	-124.69325	-253.76677	985.27026	-36.24852	-258.17645	831.55298	12.692945	-289.70132	824.35309	-62.25211	-324.09302	769.74957	16.727169	158.18542	893.60785	-15.321945	-108.12109	874.75812	-5.2589078	57.965759	943.85876	-228.34595	-31.388908	940.98334	-226.54192
2384	23.83	99.951317	1555.7618	-33.690414	-41.141975	1553.5824	-38.143616	81.26358	1560.9835	-194.81569	-47.293907	1533.3954	-203.84894	13.285038	1335.1832	-222.1618	14.759493	1128.991	-245.23866	26.852489	1283.0688	-24.854742	36.556046	1088.4728	34.148415	-65.317413	1257.7485	-241.45671	128.54468	1354.483	-155.84808	270.09265	1329.5632	-149.12636	426.54883	1282.8882	-127.20849	352.53946	1402.0216	-132.8885	307.06458	1473.2959	-107.73422	389.72607	1489.6417	-118.89454	321.02969	1527.8195	-176.41634	-110.90501	1338.4553	-129.74092	-207.45467	1136.4634	-67.697067	-234.45995	1020.5657	-124.93284	-254.38815	985.35748	-36.685795	-258.9657	831.60352	12.398326	-290.25143	824.49847	-62.62532	-324.89374	769.86609	16.389565	158.21048	893.59912	-15.355478	-108.05671	874.72113	-5.1318593	57.891422	943.84387	-228.32573	-31.444117	940.99091	-226.5208
2385	23.84	99.72274	1555.8191	-33.826454	-41.406281	1553.6869	-38.110008	80.921089	1560.9387	-194.8958	-47.626614	1533.3411	-203.92824	13.03925	1335.2802	-222.18202	14.538887	1128.974	-245.29262	26.745949	1283.0459	-24.870291	36.471508	1088.4025	34.015167	-65.532845	1257.7606	-241.49123	128.41327	1354.5042	-155.74028	270.50449	1328.243	-149.50856	427.45575	1280.0194	-129.66103	359.6033	1403.2948	-128.62294	318.63153	1475.7484	-99.172722	401.86023	1487.9744	-111.54542	334.2182	1532.8502	-165.54448	-111.08408	1338.4354	-129.72414	-207.80675	1136.4984	-68.006516	-234.89667	1020.6484	-125.17297	-254.99121	985.45734	-37.080822	-259.7691	831.69336	12.12575	-290.94156	824.67029	-63.112602	-325.76028	770.0733	15.796136	158.24574	893.62634	-15.326666	-108.02145	874.70422	-5.0409975	57.872967	943.92853	-228.45642	-31.442099	941.04034	-226.52324
2386	23.85	99.442184	1555.8799	-33.877499	-41.675251	1553.7631	-38.070038	80.542664	1560.8561	-194.97972	-48.050102	1533.2362	-203.75636	12.782111	1335.3345	-222.08165	14.322265	1128.9573	-245.3394	26.580107	1282.9424	-24.856787	36.407307	1088.3673	34.006344	-65.758652	1257.8392	-241.57323	128.28653	1354.559	-155.65199	271.20203	1326.8813	-150.30061	428.32803	1277.4137	-132.25778	366.77911	1404.1169	-124.08134	330.60349	1477.2832	-90.216293	414.0195	1485.5471	-104.36472	347.42981	1536.6836	-154.2742	-111.26566	1338.3879	-129.64656	-208.1302	1136.5311	-67.993988	-235.2841	1020.757	-125.46286	-255.55673	985.54999	-37.30291	-260.62259	831.81219	11.822069	-291.74573	824.76038	-63.424908	-326.73141	770.27069	15.444949	158.24086	893.62341	-15.334791	-108.03089	874.71704	-5.1297827	57.850525	943.97247	-228.40279	-31.496897	941.05737	-226.46199
2387	23.86	99.141998	1556.0031	-33.906704	-41.960796	1553.8401	-38.061695	80.250969	1560.7788	-194.98763	-48.516819	1533.0563	-203.63271	12.572606	1335.4177	-221.92848	14.076794	1128.9326	-245.35475	26.450706	1282.9189	-24.843838	36.316246	1088.3256	33.914642	-66.030159	1257.8903	-241.55566	128.19231	1354.6044	-155.56619	271.9382	1325.6328	-151.2795	429.18112	1275.0227	-134.99751	374.04712	1404.5208	-119.36118	342.75446	1477.785	-80.959213	425.76535	1482.3458	-97.476517	360.7897	1539.4724	-142.57715	-111.43766	1338.3815	-129.60669	-208.46626	1136.5582	-68.142708	-235.73027	1020.8455	-125.65179	-256.26477	985.70972	-37.763359	-261.57513	831.97974	11.382746	-292.52997	824.94708	-63.826843	-327.73157	770.59979	14.992864	158.26956	893.60889	-15.336255	-108.03215	874.71558	-5.1224241	57.792603	943.95099	-228.29221	-31.490494	941.07458	-226.42889
2388	23.87	98.794846	1556.0999	-33.919407	-42.29607	1553.9215	-38.14679	79.891846	1560.7565	-195.01392	-48.847557	1532.9723	-203.66969	12.406382	1335.531	-221.82619	13.891927	1128.916	-245.37881	26.320042	1282.8055	-24.594425	36.25742	1088.259	33.889832	-66.277527	1257.9736	-241.57713	128.11351	1354.6604	-155.48497	272.52863	1324.5227	-152.13316	429.92441	1272.9233	-137.79901	381.50848	1404.4014	-114.57025	355.07037	1477.2163	-71.571831	437.65604	1478.4608	-90.797829	373.98749	1541.2825	-130.82643	-111.56333	1338.3684	-129.4593	-208.799	1136.6101	-68.270607	-236.17339	1021.0242	-126.03108	-256.83588	985.82983	-37.776558	-262.59952	832.20221	11.002645	-293.44885	825.18951	-64.277634	-328.87473	770.95691	14.584306	158.29243	893.61792	-15.402252	-108.03095	874.7384	-5.0928888	57.818741	943.96338	-228.27966	-31.511185	941.14984	-226.42572
2389	23.88	98.437744	1556.2455	-33.90506	-42.617783	1553.9786	-38.179901	79.601677	1560.7214	-195.03117	-49.162899	1532.8478	-203.64011	12.237136	1335.6814	-221.77229	13.747797	1128.9287	-245.40092	26.213417	1282.748	-23.924601	36.147026	1088.2041	33.834908	-66.483986	1258.0796	-241.58215	127.98525	1354.7222	-155.37891	273.03546	1323.6396	-152.95859	430.75156	1271.0966	-140.51114	389.07843	1403.7618	-109.64152	367.62155	1475.5131	-62.052689	449.38864	1473.8186	-84.360695	387.69278	1541.9137	-118.60267	-111.67109	1338.3685	-129.34344	-209.14992	1136.6498	-68.47049	-236.69084	1021.251	-126.34573	-257.63028	986.04236	-38.36594	-263.63831	832.44672	10.556919	-294.42532	825.4248	-64.691139	-330.09735	771.39978	14.125817	158.28482	893.61963	-15.383756	-108.06506	874.73932	-5.0442915	57.823322	943.97351	-228.24089	-31.504913	941.15173	-226.43382
2390	23.89	98.130615	1556.406	-33.876949	-43.010029	1554.0189	-38.201729	79.282028	1560.6826	-194.99536	-49.403214	1532.7506	-203.68587	12.056569	1335.814	-221.67026	13.598237	1128.98	-245.31299	26.182467	1282.7806	-23.122396	36.067375	1088.1322	33.810219	-66.660706	1258.2031	-241.57394	127.87488	1354.7844	-155.27199	273.46716	1322.9336	-153.95564	431.55566	1269.4487	-143.21159	396.67972	1402.4878	-104.79939	380.26529	1472.6804	-52.741936	461.01144	1468.3221	-78.207809	402.02859	1541.4531	-105.99744	-111.77081	1338.3619	-129.17329	-209.50429	1136.7543	-68.766235	-237.15359	1021.4501	-126.67398	-258.36774	986.2854	-38.71085	-264.83032	832.74475	10.152923	-295.27609	826.1889	-65.602272	-331.46188	771.90161	13.503299	158.28531	893.60907	-15.377237	-108.06774	874.7403	-5.0583434	57.800922	943.97296	-228.12386	-31.48942	941.14471	-226.36143
2391	23.9	97.76651	1556.5531	-33.821396	-43.327946	1554.094	-38.203262	79.017563	1560.6349	-194.97426	-49.695126	1532.6733	-203.70758	11.90354	1335.9756	-221.58295	13.465932	1129.0671	-245.26868	26.049212	1282.7689	-24.62797	35.974239	1088.0698	33.768669	-66.807495	1258.298	-241.52023	127.715	1354.8978	-155.11871	273.71939	1322.373	-154.85184	432.40738	1267.9633	-145.65987	404.34818	1400.6085	-99.876709	392.95816	1468.7419	-43.564938	472.5127	1462.1036	-72.248604	416.1886	1539.7463	-93.416817	-111.82466	1338.3917	-129.0571	-209.86284	1136.8199	-68.898506	-237.71971	1021.7123	-127.12881	-259.2413	986.54791	-39.265656	-266.17136	833.02991	9.5850868	-296.5087	826.18225	-65.851326	-332.92072	772.40515	12.898528	158.2812	893.61182	-15.346007	-108.12244	874.74445	-5.141407	57.804329	943.98853	-228.12288	-31.484533	941.17102	-226.37334
2392	23.91	97.454773	1556.6957	-33.781055	-43.670437	1554.1692	-38.15947	78.700874	1560.6111	-194.93581	-49.948078	1532.6191	-203.77037	11.738809	1336.1	-221.42133	13.394804	1129.1364	-245.29504	25.950729	1282.6517	-24.086828	35.932152	1087.9927	33.657127	-66.919922	1258.3157	-241.42667	127.57536	1355.0173	-154.95299	273.8609	1321.9382	-155.67674	433.22308	1266.58	-148.03909	412.0903	1398.1083	-95.020744	405.58716	1463.6289	-33.584763	483.82452	1455.1368	-66.653755	430.17676	1536.6259	-81.110497	-111.91248	1338.3691	-128.89384	-210.25577	1136.9113	-69.282722	-238.23579	1021.9518	-127.59617	-260.0853	986.82428	-39.847687	-267.58023	833.29956	9.144372	-297.70541	826.5177	-66.467697	-334.51752	772.91901	12.239505	158.24261	893.60449	-15.356631	-108.15369	874.76019	-5.2108407	57.800529	943.97278	-228.1243	-31.489599	941.1908	-226.3605
